<mxfile host="app.diagrams.net" modified="2023-03-29T12:59:24.254Z" agent="Mozilla/5.0 (Windows NT 10.0; Win64; x64; rv:109.0) Gecko/20100101 Firefox/111.0" version="21.1.1" etag="Uh75KbVCbHDyiZhjkLAv" type="github">
  <diagram name="Page-1" id="PQ9hUMgm1BzBXzmFfFUn">
    <mxGraphModel>
      <root>
        <mxCell id="0" />
        <mxCell id="1" parent="0" />
      </root>
    </mxGraphModel>
  </diagram>
</mxfile>
